<svg id="visual" viewBox="0 0 960 540" width="960" height="540" xmlns="http://www.w3.org/2000/svg" xmlns:xlink="http://www.w3.org/1999/xlink" version="1.1"><g stroke-width="4" stroke-linejoin="bevel"><path d="M505 247L383 316L591 360Z" fill="#353f37" stroke="#333533"></path><path d="M383 316L525 540L591 360Z" fill="#353f37" stroke="#333533"></path><path d="M383 316L380 540L525 540Z" fill="#345a44" stroke="#333533"></path><path d="M813 332L730 249L591 360Z" fill="#335f47" stroke="#333533"></path><path d="M591 360L730 249L505 247Z" fill="#364f3e" stroke="#333533"></path><path d="M505 247L349 96L383 316Z" fill="#345a44" stroke="#333533"></path><path d="M383 316L120 411L380 540Z" fill="#2d6a4f" stroke="#333533"></path><path d="M476 0L349 96L505 247Z" fill="#335f47" stroke="#333533"></path><path d="M756 540L813 332L591 360Z" fill="#345a44" stroke="#333533"></path><path d="M525 540L756 540L591 360Z" fill="#343a35" stroke="#333533"></path><path d="M577 0L476 0L505 247Z" fill="#333533" stroke="#333533"></path><path d="M730 249L577 0L505 247Z" fill="#364a3b" stroke="#333533"></path><path d="M844 0L577 0L730 249Z" fill="#30644b" stroke="#333533"></path><path d="M184 104L120 411L383 316Z" fill="#333533" stroke="#333533"></path><path d="M133 0L184 104L349 96Z" fill="#333533" stroke="#333533"></path><path d="M349 96L184 104L383 316Z" fill="#333533" stroke="#333533"></path><path d="M120 411L96 540L380 540Z" fill="#364f3e" stroke="#333533"></path><path d="M756 540L960 439L813 332Z" fill="#364a3b" stroke="#333533"></path><path d="M813 332L960 234L730 249Z" fill="#335f47" stroke="#333533"></path><path d="M184 104L0 354L120 411Z" fill="#345a44" stroke="#333533"></path><path d="M120 411L0 540L96 540Z" fill="#355441" stroke="#333533"></path><path d="M960 439L960 234L813 332Z" fill="#30644b" stroke="#333533"></path><path d="M476 0L133 0L349 96Z" fill="#343a35" stroke="#333533"></path><path d="M184 104L0 121L0 354Z" fill="#353f37" stroke="#333533"></path><path d="M960 234L844 0L730 249Z" fill="#353f37" stroke="#333533"></path><path d="M756 540L960 540L960 439Z" fill="#364439" stroke="#333533"></path><path d="M0 354L0 540L120 411Z" fill="#364439" stroke="#333533"></path><path d="M133 0L0 121L184 104Z" fill="#343a35" stroke="#333533"></path><path d="M960 234L960 0L844 0Z" fill="#2d6a4f" stroke="#333533"></path><path d="M133 0L0 0L0 121Z" fill="#335f47" stroke="#333533"></path></g></svg>