<svg id="visual" viewBox="0 0 960 540" width="960" height="540" xmlns="http://www.w3.org/2000/svg" xmlns:xlink="http://www.w3.org/1999/xlink" version="1.1"><g stroke-width="4" stroke-linejoin="bevel"><path d="M499 294L539 145L331 105Z" fill="#343a35" stroke="#333533"></path><path d="M331 105L284 130L499 294Z" fill="#335f47" stroke="#333533"></path><path d="M284 130L247 327L499 294Z" fill="#2d6a4f" stroke="#333533"></path><path d="M331 105L296 0L284 130Z" fill="#364f3e" stroke="#333533"></path><path d="M284 130L0 191L247 327Z" fill="#343a35" stroke="#333533"></path><path d="M539 145L296 0L331 105Z" fill="#333533" stroke="#333533"></path><path d="M247 327L361 453L499 294Z" fill="#343a35" stroke="#333533"></path><path d="M773 244L626 0L539 145Z" fill="#353f37" stroke="#333533"></path><path d="M539 145L626 0L296 0Z" fill="#364f3e" stroke="#333533"></path><path d="M296 0L167 0L284 130Z" fill="#364439" stroke="#333533"></path><path d="M361 453L508 540L499 294Z" fill="#335f47" stroke="#333533"></path><path d="M99 540L390 540L361 453Z" fill="#335f47" stroke="#333533"></path><path d="M769 324L773 244L499 294Z" fill="#364f3e" stroke="#333533"></path><path d="M499 294L773 244L539 145Z" fill="#345a44" stroke="#333533"></path><path d="M390 540L508 540L361 453Z" fill="#364439" stroke="#333533"></path><path d="M682 540L769 324L499 294Z" fill="#343a35" stroke="#333533"></path><path d="M167 0L0 191L284 130Z" fill="#30644b" stroke="#333533"></path><path d="M247 327L99 540L361 453Z" fill="#364f3e" stroke="#333533"></path><path d="M508 540L682 540L499 294Z" fill="#345a44" stroke="#333533"></path><path d="M960 227L832 0L773 244Z" fill="#30644b" stroke="#333533"></path><path d="M773 244L832 0L626 0Z" fill="#333533" stroke="#333533"></path><path d="M167 0L0 0L0 191Z" fill="#30644b" stroke="#333533"></path><path d="M0 416L99 540L247 327Z" fill="#364a3b" stroke="#333533"></path><path d="M0 191L0 416L247 327Z" fill="#364f3e" stroke="#333533"></path><path d="M960 317L773 244L769 324Z" fill="#345a44" stroke="#333533"></path><path d="M960 317L960 227L773 244Z" fill="#2d6a4f" stroke="#333533"></path><path d="M0 416L0 540L99 540Z" fill="#2d6a4f" stroke="#333533"></path><path d="M960 540L960 317L769 324Z" fill="#355441" stroke="#333533"></path><path d="M960 227L960 0L832 0Z" fill="#353f37" stroke="#333533"></path><path d="M682 540L960 540L769 324Z" fill="#333533" stroke="#333533"></path></g></svg>