<svg id="visual" viewBox="0 0 960 540" width="960" height="540" xmlns="http://www.w3.org/2000/svg" xmlns:xlink="http://www.w3.org/1999/xlink" version="1.1"><g stroke-width="4" stroke-linejoin="bevel"><path d="M493 409L418 426L467 540Z" fill="#343a35" stroke="#333533"></path><path d="M467 540L577 540L493 409Z" fill="#364439" stroke="#333533"></path><path d="M493 409L306 272L418 426Z" fill="#364439" stroke="#333533"></path><path d="M418 426L210 540L467 540Z" fill="#343a35" stroke="#333533"></path><path d="M306 272L210 540L418 426Z" fill="#2d6a4f" stroke="#333533"></path><path d="M577 540L786 448L493 409Z" fill="#333533" stroke="#333533"></path><path d="M493 409L607 106L306 272Z" fill="#353f37" stroke="#333533"></path><path d="M772 540L786 448L577 540Z" fill="#333533" stroke="#333533"></path><path d="M306 272L167 309L210 540Z" fill="#364a3b" stroke="#333533"></path><path d="M786 448L607 106L493 409Z" fill="#30644b" stroke="#333533"></path><path d="M306 272L101 173L167 309Z" fill="#30644b" stroke="#333533"></path><path d="M0 404L0 540L210 540Z" fill="#345a44" stroke="#333533"></path><path d="M167 309L0 404L210 540Z" fill="#345a44" stroke="#333533"></path><path d="M230 0L101 173L306 272Z" fill="#364a3b" stroke="#333533"></path><path d="M167 309L101 173L0 404Z" fill="#333533" stroke="#333533"></path><path d="M607 106L430 0L306 272Z" fill="#364f3e" stroke="#333533"></path><path d="M607 106L513 0L430 0Z" fill="#343a35" stroke="#333533"></path><path d="M772 540L960 540L786 448Z" fill="#335f47" stroke="#333533"></path><path d="M786 448L819 96L607 106Z" fill="#364a3b" stroke="#333533"></path><path d="M960 540L960 404L786 448Z" fill="#30644b" stroke="#333533"></path><path d="M607 106L846 0L513 0Z" fill="#364439" stroke="#333533"></path><path d="M960 404L819 96L786 448Z" fill="#2d6a4f" stroke="#333533"></path><path d="M430 0L230 0L306 272Z" fill="#30644b" stroke="#333533"></path><path d="M0 0L0 100L101 173Z" fill="#353f37" stroke="#333533"></path><path d="M101 173L0 100L0 404Z" fill="#364f3e" stroke="#333533"></path><path d="M960 99L846 0L819 96Z" fill="#345a44" stroke="#333533"></path><path d="M819 96L846 0L607 106Z" fill="#343a35" stroke="#333533"></path><path d="M960 404L960 99L819 96Z" fill="#335f47" stroke="#333533"></path><path d="M230 0L0 0L101 173Z" fill="#364439" stroke="#333533"></path><path d="M960 99L960 0L846 0Z" fill="#343a35" stroke="#333533"></path></g></svg>