<svg id="visual" viewBox="0 0 960 540" width="960" height="540" xmlns="http://www.w3.org/2000/svg" xmlns:xlink="http://www.w3.org/1999/xlink" version="1.1"><g stroke-width="4" stroke-linejoin="bevel"><path d="M554 266L529 201L444 159Z" fill="#365240" stroke="#333533"></path><path d="M444 159L386 439L554 266Z" fill="#333533" stroke="#333533"></path><path d="M386 439L578 540L554 266Z" fill="#364c3c" stroke="#333533"></path><path d="M444 159L171 266L386 439Z" fill="#31644b" stroke="#333533"></path><path d="M386 439L128 540L468 540Z" fill="#364c3c" stroke="#333533"></path><path d="M545 0L437 0L444 159Z" fill="#31644b" stroke="#333533"></path><path d="M444 159L97 0L171 266Z" fill="#36463a" stroke="#333533"></path><path d="M762 243L545 0L529 201Z" fill="#31644b" stroke="#333533"></path><path d="M529 201L545 0L444 159Z" fill="#364c3c" stroke="#333533"></path><path d="M468 540L578 540L386 439Z" fill="#2d6a4f" stroke="#333533"></path><path d="M554 266L762 243L529 201Z" fill="#2d6a4f" stroke="#333533"></path><path d="M171 266L186 451L386 439Z" fill="#355843" stroke="#333533"></path><path d="M736 415L762 243L554 266Z" fill="#36463a" stroke="#333533"></path><path d="M578 540L736 415L554 266Z" fill="#31644b" stroke="#333533"></path><path d="M0 388L128 540L186 451Z" fill="#36463a" stroke="#333533"></path><path d="M186 451L128 540L386 439Z" fill="#364037" stroke="#333533"></path><path d="M578 540L776 540L736 415Z" fill="#365240" stroke="#333533"></path><path d="M960 369L960 199L762 243Z" fill="#36463a" stroke="#333533"></path><path d="M437 0L97 0L444 159Z" fill="#355843" stroke="#333533"></path><path d="M171 266L0 388L186 451Z" fill="#31644b" stroke="#333533"></path><path d="M97 0L0 208L171 266Z" fill="#31644b" stroke="#333533"></path><path d="M0 208L0 388L171 266Z" fill="#343b35" stroke="#333533"></path><path d="M960 199L832 0L762 243Z" fill="#36463a" stroke="#333533"></path><path d="M762 243L832 0L545 0Z" fill="#333533" stroke="#333533"></path><path d="M0 388L0 540L128 540Z" fill="#335e47" stroke="#333533"></path><path d="M97 0L0 0L0 208Z" fill="#343b35" stroke="#333533"></path><path d="M960 369L762 243L736 415Z" fill="#355843" stroke="#333533"></path><path d="M776 540L960 369L736 415Z" fill="#31644b" stroke="#333533"></path><path d="M776 540L960 540L960 369Z" fill="#36463a" stroke="#333533"></path><path d="M960 199L960 0L832 0Z" fill="#365240" stroke="#333533"></path></g></svg>