<svg id="visual" viewBox="0 0 960 540" width="960" height="540" xmlns="http://www.w3.org/2000/svg" xmlns:xlink="http://www.w3.org/1999/xlink" version="1.1"><g stroke-width="4" stroke-linejoin="bevel"><path d="M400 368L172 388L317 540Z" fill="#364439" stroke="#333533"></path><path d="M172 388L123 540L317 540Z" fill="#335f47" stroke="#333533"></path><path d="M400 368L144 231L172 388Z" fill="#333533" stroke="#333533"></path><path d="M172 388L0 390L123 540Z" fill="#343a35" stroke="#333533"></path><path d="M144 231L0 390L172 388Z" fill="#30644b" stroke="#333533"></path><path d="M0 390L0 540L123 540Z" fill="#333533" stroke="#333533"></path><path d="M400 368L353 103L144 231Z" fill="#355441" stroke="#333533"></path><path d="M615 540L629 445L400 368Z" fill="#345a44" stroke="#333533"></path><path d="M400 368L649 157L353 103Z" fill="#30644b" stroke="#333533"></path><path d="M317 540L615 540L400 368Z" fill="#353f37" stroke="#333533"></path><path d="M144 231L0 195L0 390Z" fill="#345a44" stroke="#333533"></path><path d="M0 0L0 195L144 231Z" fill="#345a44" stroke="#333533"></path><path d="M353 103L258 0L144 231Z" fill="#364a3b" stroke="#333533"></path><path d="M523 0L375 0L353 103Z" fill="#30644b" stroke="#333533"></path><path d="M353 103L375 0L258 0Z" fill="#335f47" stroke="#333533"></path><path d="M629 445L649 157L400 368Z" fill="#343a35" stroke="#333533"></path><path d="M836 271L739 268L848 540Z" fill="#30644b" stroke="#333533"></path><path d="M629 445L739 268L649 157Z" fill="#345a44" stroke="#333533"></path><path d="M799 0L523 0L649 157Z" fill="#2d6a4f" stroke="#333533"></path><path d="M649 157L523 0L353 103Z" fill="#335f47" stroke="#333533"></path><path d="M258 0L0 0L144 231Z" fill="#364a3b" stroke="#333533"></path><path d="M848 540L739 268L629 445Z" fill="#355441" stroke="#333533"></path><path d="M739 268L799 0L649 157Z" fill="#364439" stroke="#333533"></path><path d="M615 540L848 540L629 445Z" fill="#364f3e" stroke="#333533"></path><path d="M836 271L799 0L739 268Z" fill="#333533" stroke="#333533"></path><path d="M848 540L960 311L836 271Z" fill="#2d6a4f" stroke="#333533"></path><path d="M836 271L960 154L799 0Z" fill="#335f47" stroke="#333533"></path><path d="M848 540L960 540L960 311Z" fill="#343a35" stroke="#333533"></path><path d="M960 311L960 154L836 271Z" fill="#343a35" stroke="#333533"></path><path d="M960 154L960 0L799 0Z" fill="#333533" stroke="#333533"></path></g></svg>